<svg width="434" height="125" viewBox="0 0 434 125" fill="none" xmlns="http://www.w3.org/2000/svg">
<path d="M19.1667 13.1465C21.401 13.1465 23.6042 13.4694 25.7708 14.1048C27.9375 14.7298 29.8177 15.6777 31.4167 16.9382C33.0521 15.8444 34.901 14.9382 36.9583 14.2298C39.0104 13.5111 41.4896 13.1465 44.3958 13.1465C46.4792 13.1465 48.5208 13.4277 50.5208 13.9798C52.5208 14.5215 54.2969 15.3861 55.8542 16.5632C57.4219 17.7454 58.6719 19.3079 59.6042 21.2507C60.5312 23.1986 61 25.5632 61 28.3548V54.2507C60.4583 54.4173 59.5938 54.584 58.4167 54.7507C57.2344 54.9173 56.0104 55.0007 54.75 55.0007C53.5417 55.0007 52.4583 54.9173 51.5 54.7507C50.5417 54.584 49.7344 54.2611 49.0833 53.7715C48.4271 53.2715 47.9219 52.5996 47.5625 51.7507C47.1979 50.9069 47.0208 49.7923 47.0208 48.4173V28.7715C47.0208 27.1204 46.5521 25.9277 45.625 25.1882C44.6927 24.4538 43.4375 24.084 41.8542 24.084C41.0729 24.084 40.25 24.2663 39.375 24.6257C38.5 24.9746 37.8438 25.3444 37.4167 25.7298C37.4688 25.9538 37.5 26.1621 37.5 26.3548C37.5 26.5371 37.5 26.709 37.5 26.8757V54.2507C36.8854 54.4173 35.9896 54.584 34.8125 54.7507C33.6302 54.9173 32.4427 55.0007 31.25 55.0007C30.0417 55.0007 28.9583 54.9173 28 54.7507C27.0417 54.584 26.2292 54.2611 25.5625 53.7715C24.9062 53.2715 24.401 52.5996 24.0417 51.7507C23.6927 50.9069 23.5208 49.7923 23.5208 48.4173V28.7715C23.5208 27.1204 23.0104 25.9277 22 25.1882C20.9844 24.4538 19.7604 24.084 18.3333 24.084C17.3438 24.084 16.5 24.2402 15.7917 24.5423C15.0833 24.834 14.4792 25.1204 13.9792 25.3965V54.2507C13.4375 54.4173 12.5729 54.584 11.3958 54.7507C10.2135 54.9173 8.98958 55.0007 7.72917 55.0007C6.52083 55.0007 5.4375 54.9173 4.47917 54.7507C3.52083 54.584 2.70833 54.2611 2.04167 53.7715C1.38542 53.2715 0.880208 52.5996 0.520833 51.7507C0.171875 50.9069 0 49.7923 0 48.4173V23.584C0 22.1152 0.3125 20.9382 0.9375 20.0632C1.57292 19.1777 2.44271 18.3496 3.54167 17.584C5.40104 16.2663 7.71354 15.1986 10.4792 14.3757C13.2552 13.5579 16.151 13.1465 19.1667 13.1465Z" fill="white"/>
<path d="M69.5293 14.959C70.0814 14.7923 70.946 14.6257 72.1126 14.459C73.2897 14.2923 74.5137 14.209 75.7793 14.209C76.9876 14.209 78.071 14.2923 79.0293 14.459C79.9876 14.6257 80.7897 14.959 81.446 15.459C82.1126 15.9486 82.6178 16.6152 82.9668 17.459C83.3262 18.3079 83.5085 19.4173 83.5085 20.7923V38.459C83.5085 40.709 84.0553 42.3132 85.1543 43.2715C86.248 44.2298 87.8418 44.709 89.9251 44.709C91.1855 44.709 92.2168 44.6048 93.0085 44.3965C93.8001 44.1777 94.4147 43.9538 94.8626 43.7298V14.959C95.4043 14.7923 96.2637 14.6257 97.446 14.459C98.623 14.2923 99.8418 14.209 101.092 14.209C102.3 14.209 103.383 14.2923 104.342 14.459C105.3 14.6257 106.102 14.959 106.758 15.459C107.425 15.9486 107.93 16.6152 108.279 17.459C108.639 18.3079 108.821 19.4173 108.821 20.7923V45.7923C108.821 48.5319 107.675 50.584 105.383 51.959C103.467 53.1569 101.175 54.0632 98.5085 54.6882C95.8522 55.3236 92.9668 55.6465 89.8418 55.6465C86.8835 55.6465 84.1543 55.3132 81.6543 54.6465C79.1647 53.9954 77.0137 52.9902 75.196 51.6257C73.3887 50.2507 71.9928 48.4798 71.0085 46.3132C70.0189 44.1465 69.5293 41.5319 69.5293 38.459V14.959Z" fill="white"/>
<path d="M156.821 54.25C156.279 54.4167 155.415 54.5833 154.238 54.75C153.055 54.9167 151.831 55 150.571 55C149.373 55 148.29 54.9167 147.321 54.75C146.363 54.5833 145.555 54.2604 144.904 53.7708C144.248 53.2708 143.743 52.599 143.383 51.75C143.019 50.9063 142.842 49.7917 142.842 48.4167V30.1667C142.842 27.9167 142.279 26.3438 141.154 25.4375C140.04 24.5365 138.66 24.0833 137.008 24.0833C135.91 24.0833 134.868 24.224 133.883 24.5C132.894 24.7656 132.102 25.0938 131.508 25.4792V54.25C130.951 54.4167 130.081 54.5833 128.904 54.75C127.738 54.9167 126.519 55 125.258 55C124.05 55 122.967 54.9167 122.008 54.75C121.05 54.5833 120.238 54.2604 119.571 53.7708C118.915 53.2708 118.41 52.599 118.05 51.75C117.701 50.9063 117.529 49.7917 117.529 48.4167V0.729167C118.123 0.619792 119.014 0.473959 120.196 0.291667C121.373 0.0989587 122.571 0 123.779 0C124.988 0 126.071 0.0833333 127.029 0.25C127.988 0.406251 128.79 0.729167 129.446 1.22917C130.113 1.71875 130.618 2.39063 130.967 3.25C131.326 4.09896 131.508 5.20313 131.508 6.5625V14.625C132.217 14.349 133.29 14.0365 134.738 13.6875C136.196 13.3281 137.805 13.1458 139.571 13.1458C144.988 13.1458 149.217 14.5104 152.258 17.2292C155.3 19.9375 156.821 23.974 156.821 29.3333V54.25Z" fill="white"/>
<path d="M182.546 45.459C183.473 45.459 184.505 45.3652 185.63 45.1673C186.755 44.9746 187.588 44.7194 188.13 44.3965V37.8132L182.213 38.3132C180.682 38.4121 179.426 38.7402 178.442 39.2923C177.452 39.834 176.963 40.6569 176.963 41.7507C176.963 42.8496 177.385 43.7454 178.234 44.4382C179.077 45.1204 180.515 45.459 182.546 45.459ZM181.88 13.1465C184.838 13.1465 187.536 13.4538 189.984 14.0632C192.426 14.6621 194.51 15.5788 196.234 16.8132C197.952 18.0371 199.281 19.5996 200.213 21.5007C201.14 23.3913 201.609 25.6204 201.609 28.1882V46.6048C201.609 48.0371 201.213 49.2038 200.421 50.1048C199.63 51.0111 198.682 51.7871 197.588 52.4382C194.031 54.5736 189.015 55.6465 182.546 55.6465C179.64 55.6465 177.025 55.3652 174.692 54.8132C172.359 54.2715 170.359 53.4538 168.692 52.3548C167.025 51.2611 165.734 49.8652 164.817 48.1673C163.911 46.4746 163.463 44.5007 163.463 42.2507C163.463 38.4746 164.588 35.5736 166.838 33.5423C169.088 31.5163 172.567 30.2507 177.275 29.7507L188.046 28.6048V28.0215C188.046 26.4382 187.343 25.3079 185.942 24.6257C184.551 23.9329 182.546 23.584 179.921 23.584C177.838 23.584 175.807 23.8079 173.838 24.2507C171.864 24.6829 170.077 25.2298 168.484 25.8965C167.775 25.3965 167.171 24.6413 166.671 23.6257C166.182 22.6152 165.942 21.5579 165.942 20.459C165.942 19.0423 166.281 17.9121 166.963 17.0632C167.656 16.2038 168.713 15.4746 170.13 14.8757C171.723 14.2819 173.598 13.8444 175.755 13.5632C177.921 13.2871 179.963 13.1465 181.88 13.1465Z" fill="white"/>
<path d="M229.319 13.1465C231.553 13.1465 233.757 13.4694 235.923 14.1048C238.09 14.7298 239.97 15.6777 241.569 16.9382C243.204 15.8444 245.053 14.9382 247.111 14.2298C249.163 13.5111 251.642 13.1465 254.548 13.1465C256.632 13.1465 258.673 13.4277 260.673 13.9798C262.673 14.5215 264.449 15.3861 266.007 16.5632C267.574 17.7454 268.824 19.3079 269.757 21.2507C270.684 23.1986 271.152 25.5632 271.152 28.3548V54.2507C270.611 54.4173 269.746 54.584 268.569 54.7507C267.387 54.9173 266.163 55.0007 264.902 55.0007C263.694 55.0007 262.611 54.9173 261.652 54.7507C260.694 54.584 259.887 54.2611 259.236 53.7715C258.579 53.2715 258.074 52.5996 257.715 51.7507C257.35 50.9069 257.173 49.7923 257.173 48.4173V28.7715C257.173 27.1204 256.704 25.9277 255.777 25.1882C254.845 24.4538 253.59 24.084 252.007 24.084C251.225 24.084 250.402 24.2663 249.527 24.6257C248.652 24.9746 247.996 25.3444 247.569 25.7298C247.621 25.9538 247.652 26.1621 247.652 26.3548C247.652 26.5371 247.652 26.709 247.652 26.8757V54.2507C247.038 54.4173 246.142 54.584 244.965 54.7507C243.783 54.9173 242.595 55.0007 241.402 55.0007C240.194 55.0007 239.111 54.9173 238.152 54.7507C237.194 54.584 236.382 54.2611 235.715 53.7715C235.059 53.2715 234.553 52.5996 234.194 51.7507C233.845 50.9069 233.673 49.7923 233.673 48.4173V28.7715C233.673 27.1204 233.163 25.9277 232.152 25.1882C231.137 24.4538 229.913 24.084 228.486 24.084C227.496 24.084 226.652 24.2402 225.944 24.5423C225.236 24.834 224.632 25.1204 224.132 25.3965V54.2507C223.59 54.4173 222.725 54.584 221.548 54.7507C220.366 54.9173 219.142 55.0007 217.882 55.0007C216.673 55.0007 215.59 54.9173 214.632 54.7507C213.673 54.584 212.861 54.2611 212.194 53.7715C211.538 53.2715 211.033 52.5996 210.673 51.7507C210.324 50.9069 210.152 49.7923 210.152 48.4173V23.584C210.152 22.1152 210.465 20.9382 211.09 20.0632C211.725 19.1777 212.595 18.3496 213.694 17.584C215.553 16.2663 217.866 15.1986 220.632 14.3757C223.408 13.5579 226.303 13.1465 229.319 13.1465Z" fill="white"/>
<path d="M298.85 13.1465C301.085 13.1465 303.288 13.4694 305.454 14.1048C307.621 14.7298 309.501 15.6777 311.1 16.9382C312.736 15.8444 314.585 14.9382 316.642 14.2298C318.694 13.5111 321.173 13.1465 324.079 13.1465C326.163 13.1465 328.204 13.4277 330.204 13.9798C332.204 14.5215 333.98 15.3861 335.538 16.5632C337.105 17.7454 338.355 19.3079 339.288 21.2507C340.215 23.1986 340.684 25.5632 340.684 28.3548V54.2507C340.142 54.4173 339.277 54.584 338.1 54.7507C336.918 54.9173 335.694 55.0007 334.434 55.0007C333.225 55.0007 332.142 54.9173 331.184 54.7507C330.225 54.584 329.418 54.2611 328.767 53.7715C328.111 53.2715 327.605 52.5996 327.246 51.7507C326.882 50.9069 326.704 49.7923 326.704 48.4173V28.7715C326.704 27.1204 326.236 25.9277 325.309 25.1882C324.376 24.4538 323.121 24.084 321.538 24.084C320.757 24.084 319.934 24.2663 319.059 24.6257C318.184 24.9746 317.527 25.3444 317.1 25.7298C317.152 25.9538 317.184 26.1621 317.184 26.3548C317.184 26.5371 317.184 26.709 317.184 26.8757V54.2507C316.569 54.4173 315.673 54.584 314.496 54.7507C313.314 54.9173 312.126 55.0007 310.934 55.0007C309.725 55.0007 308.642 54.9173 307.684 54.7507C306.725 54.584 305.913 54.2611 305.246 53.7715C304.59 53.2715 304.085 52.5996 303.725 51.7507C303.376 50.9069 303.204 49.7923 303.204 48.4173V28.7715C303.204 27.1204 302.694 25.9277 301.684 25.1882C300.668 24.4538 299.444 24.084 298.017 24.084C297.027 24.084 296.184 24.2402 295.475 24.5423C294.767 24.834 294.163 25.1204 293.663 25.3965V54.2507C293.121 54.4173 292.257 54.584 291.079 54.7507C289.897 54.9173 288.673 55.0007 287.413 55.0007C286.204 55.0007 285.121 54.9173 284.163 54.7507C283.204 54.584 282.392 54.2611 281.725 53.7715C281.069 53.2715 280.564 52.5996 280.204 51.7507C279.855 50.9069 279.684 49.7923 279.684 48.4173V23.584C279.684 22.1152 279.996 20.9382 280.621 20.0632C281.257 19.1777 282.126 18.3496 283.225 17.584C285.085 16.2663 287.397 15.1986 290.163 14.3757C292.939 13.5579 295.835 13.1465 298.85 13.1465Z" fill="white"/>
<path d="M366.318 45.459C367.245 45.459 368.276 45.3652 369.401 45.1673C370.526 44.9746 371.359 44.7194 371.901 44.3965V37.8132L365.984 38.3132C364.453 38.4121 363.198 38.7402 362.214 39.2923C361.224 39.834 360.734 40.6569 360.734 41.7507C360.734 42.8496 361.156 43.7454 362.005 44.4382C362.849 45.1204 364.286 45.459 366.318 45.459ZM365.651 13.1465C368.609 13.1465 371.307 13.4538 373.755 14.0632C376.198 14.6621 378.281 15.5788 380.005 16.8132C381.724 18.0371 383.052 19.5996 383.984 21.5007C384.911 23.3913 385.38 25.6204 385.38 28.1882V46.6048C385.38 48.0371 384.984 49.2038 384.193 50.1048C383.401 51.0111 382.453 51.7871 381.359 52.4382C377.802 54.5736 372.786 55.6465 366.318 55.6465C363.411 55.6465 360.797 55.3652 358.464 54.8132C356.13 54.2715 354.13 53.4538 352.464 52.3548C350.797 51.2611 349.505 49.8652 348.589 48.1673C347.682 46.4746 347.234 44.5007 347.234 42.2507C347.234 38.4746 348.359 35.5736 350.609 33.5423C352.859 31.5163 356.339 30.2507 361.047 29.7507L371.818 28.6048V28.0215C371.818 26.4382 371.115 25.3079 369.714 24.6257C368.323 23.9329 366.318 23.584 363.693 23.584C361.609 23.584 359.578 23.8079 357.609 24.2507C355.635 24.6829 353.849 25.2298 352.255 25.8965C351.547 25.3965 350.943 24.6413 350.443 23.6257C349.953 22.6152 349.714 21.5579 349.714 20.459C349.714 19.0423 350.052 17.9121 350.734 17.0632C351.427 16.2038 352.484 15.4746 353.901 14.8757C355.495 14.2819 357.37 13.8444 359.526 13.5632C361.693 13.2871 363.734 13.1465 365.651 13.1465Z" fill="white"/>
<path d="M392.195 34.3542C392.195 30.7448 392.742 27.6146 393.841 24.9583C394.935 22.2917 396.456 20.0833 398.404 18.3333C400.346 16.5729 402.617 15.2656 405.216 14.4167C407.826 13.5729 410.638 13.1458 413.654 13.1458C414.747 13.1458 415.82 13.2448 416.862 13.4375C417.904 13.6354 418.747 13.8646 419.404 14.125V0.8125C419.956 0.645833 420.841 0.473959 422.049 0.291667C423.258 0.0989587 424.487 0 425.737 0C426.945 0 428.029 0.0833333 428.987 0.25C429.945 0.406251 430.747 0.729167 431.404 1.22917C432.07 1.71875 432.56 2.39063 432.883 3.25C433.216 4.09896 433.383 5.20313 433.383 6.5625V45.5417C433.383 48.1146 432.18 50.1667 429.779 51.7083C428.18 52.75 426.117 53.6667 423.591 54.4583C421.076 55.25 418.174 55.6458 414.883 55.6458C411.326 55.6458 408.133 55.151 405.299 54.1667C402.477 53.1823 400.096 51.7604 398.154 49.8958C396.206 48.0365 394.727 45.8073 393.716 43.2083C392.701 40.599 392.195 37.6458 392.195 34.3542ZM415.549 24.0833C412.591 24.0833 410.31 24.9375 408.716 26.6458C407.133 28.3438 406.341 30.9115 406.341 34.3542C406.341 37.7604 407.076 40.3229 408.549 42.0417C410.034 43.7656 412.174 44.625 414.966 44.625C415.951 44.625 416.841 44.4792 417.633 44.1875C418.435 43.8854 419.055 43.5365 419.487 43.1458V25.0625C418.388 24.4115 417.076 24.0833 415.549 24.0833Z" fill="white"/>
<path d="M39.0619 116.104C38.7806 118.677 38.0254 120.646 36.791 122.021C35.5514 123.396 33.7598 124.083 31.416 124.083C29.6504 124.083 28.0827 123.656 26.7077 122.812C25.3431 121.953 23.8743 120.51 22.291 118.479L14.1452 108.292V123.25C13.5306 123.359 12.6348 123.51 11.4577 123.708C10.291 123.901 9.10352 124 7.89518 124C6.68685 124 5.60352 123.917 4.64518 123.75C3.68685 123.583 2.87435 123.26 2.20768 122.771C1.55143 122.271 1.04622 121.599 0.686849 120.75C0.33789 119.906 0.166016 118.792 0.166016 117.417V69.8125C0.759766 69.6458 1.65039 69.474 2.83268 69.2917C4.00977 69.099 5.20768 69 6.41602 69C7.62435 69 8.70768 69.0833 9.66602 69.25C10.6243 69.4063 11.4264 69.7292 12.0827 70.2292C12.7493 70.7187 13.2546 71.3906 13.6035 72.25C13.9629 73.099 14.1452 74.2031 14.1452 75.5625V97.2708L28.291 82.8125C31.1348 82.8125 33.4212 83.4479 35.1452 84.7083C36.8639 85.9583 37.7285 87.5417 37.7285 89.4583C37.7285 90.2813 37.5879 91.0365 37.3119 91.7292C37.0462 92.4115 36.6244 93.1146 36.041 93.8333C35.4681 94.5417 34.7337 95.2917 33.8327 96.0833C32.9264 96.875 31.8743 97.7917 30.666 98.8333L25.8952 102.938L39.0619 116.104Z" fill="#C147E9"/>
<path d="M85.071 123.25C84.5293 123.417 83.6647 123.583 82.4876 123.75C81.3053 123.917 80.0814 124 78.821 124C77.623 124 76.5397 123.917 75.571 123.75C74.6126 123.583 73.8053 123.26 73.1543 122.771C72.498 122.271 71.9928 121.599 71.6335 120.75C71.2689 119.906 71.0918 118.792 71.0918 117.417V99.1667C71.0918 96.9167 70.5293 95.3438 69.4043 94.4375C68.2897 93.5365 66.9095 93.0833 65.2585 93.0833C64.1595 93.0833 63.1178 93.224 62.1335 93.5C61.1439 93.7656 60.3522 94.0938 59.7585 94.4792V123.25C59.2012 123.417 58.3314 123.583 57.1543 123.75C55.9876 123.917 54.7689 124 53.5085 124C52.3001 124 51.2168 123.917 50.2585 123.75C49.3001 123.583 48.4876 123.26 47.821 122.771C47.1647 122.271 46.6595 121.599 46.3001 120.75C45.9512 119.906 45.7793 118.792 45.7793 117.417V69.7292C46.373 69.6198 47.2637 69.474 48.446 69.2917C49.623 69.099 50.821 69 52.0293 69C53.2376 69 54.321 69.0833 55.2793 69.25C56.2376 69.4063 57.0397 69.7292 57.696 70.2292C58.3626 70.7187 58.8678 71.3906 59.2168 72.25C59.5762 73.099 59.7585 74.2031 59.7585 75.5625V83.625C60.4668 83.349 61.5397 83.0365 62.9876 82.6875C64.446 82.3281 66.0553 82.1458 67.821 82.1458C73.2376 82.1458 77.4668 83.5104 80.5085 86.2292C83.5501 88.9375 85.071 92.974 85.071 98.3333V123.25Z" fill="#C147E9"/>
<path d="M110.796 114.459C111.723 114.459 112.755 114.365 113.88 114.167C115.005 113.975 115.838 113.719 116.38 113.396V106.813L110.463 107.313C108.932 107.412 107.676 107.74 106.692 108.292C105.702 108.834 105.213 109.657 105.213 110.751C105.213 111.85 105.635 112.745 106.484 113.438C107.327 114.12 108.765 114.459 110.796 114.459ZM110.13 82.1465C113.088 82.1465 115.786 82.4538 118.234 83.0632C120.676 83.6621 122.76 84.5788 124.484 85.8132C126.202 87.0371 127.531 88.5996 128.463 90.5007C129.39 92.3913 129.859 94.6204 129.859 97.1882V115.605C129.859 117.037 129.463 118.204 128.671 119.105C127.88 120.011 126.932 120.787 125.838 121.438C122.281 123.574 117.265 124.646 110.796 124.646C107.89 124.646 105.275 124.365 102.942 123.813C100.609 123.271 98.6087 122.454 96.9421 121.355C95.2754 120.261 93.9837 118.865 93.0671 117.167C92.1608 115.475 91.7129 113.501 91.7129 111.251C91.7129 107.475 92.8379 104.574 95.0879 102.542C97.3379 100.516 100.817 99.2507 105.525 98.7507L116.296 97.6048V97.0215C116.296 95.4382 115.593 94.3079 114.192 93.6257C112.801 92.9329 110.796 92.584 108.171 92.584C106.088 92.584 104.057 92.8079 102.088 93.2507C100.114 93.6829 98.3275 94.2298 96.7337 94.8965C96.0254 94.3965 95.4212 93.6413 94.9212 92.6257C94.4316 91.6152 94.1921 90.5579 94.1921 89.459C94.1921 88.0423 94.5306 86.9121 95.2129 86.0632C95.9056 85.2038 96.9629 84.4746 98.3796 83.8757C99.9733 83.2819 101.848 82.8444 104.005 82.5632C106.171 82.2871 108.213 82.1465 110.13 82.1465Z" fill="#C147E9"/>
<path d="M152.632 123.25C152.017 123.359 151.121 123.51 149.944 123.708C148.777 123.901 147.59 124 146.382 124C145.173 124 144.09 123.917 143.132 123.75C142.173 123.583 141.361 123.26 140.694 122.771C140.038 122.271 139.533 121.599 139.173 120.75C138.824 119.906 138.652 118.792 138.652 117.417V69.7292C139.246 69.6198 140.137 69.474 141.319 69.2917C142.496 69.099 143.694 69 144.902 69C146.111 69 147.194 69.0833 148.152 69.25C149.111 69.4063 149.913 69.7292 150.569 70.2292C151.236 70.7187 151.741 71.3906 152.09 72.25C152.449 73.099 152.632 74.2031 152.632 75.5625V123.25Z" fill="#C147E9"/>
<path d="M161.082 72.2917C161.082 70.2083 161.78 68.4531 163.186 67.0208C164.587 65.5937 166.436 64.875 168.728 64.875C171.03 64.875 172.879 65.5937 174.27 67.0208C175.671 68.4531 176.374 70.2083 176.374 72.2917C176.374 74.3646 175.671 76.1146 174.27 77.5417C172.879 78.974 171.03 79.6875 168.728 79.6875C166.436 79.6875 164.587 78.974 163.186 77.5417C161.78 76.1146 161.082 74.3646 161.082 72.2917ZM175.728 123.25C175.113 123.359 174.217 123.51 173.04 123.708C171.874 123.901 170.686 124 169.478 124C168.27 124 167.186 123.917 166.228 123.75C165.27 123.583 164.457 123.26 163.79 122.771C163.134 122.271 162.629 121.599 162.27 120.75C161.921 119.906 161.749 118.792 161.749 117.417V83.9583C162.342 83.849 163.233 83.6979 164.415 83.5C165.592 83.3073 166.79 83.2083 167.999 83.2083C169.207 83.2083 170.29 83.2917 171.249 83.4583C172.207 83.625 173.009 83.9583 173.665 84.4583C174.316 84.9479 174.822 85.6146 175.186 86.4583C175.546 87.3073 175.728 88.4167 175.728 89.7917V123.25Z" fill="#C147E9"/>
<path d="M182.863 103.354C182.863 99.7448 183.41 96.6146 184.509 93.9583C185.603 91.2917 187.124 89.0833 189.072 87.3333C191.014 85.5729 193.285 84.2656 195.884 83.4167C198.493 82.5729 201.306 82.1458 204.322 82.1458C205.415 82.1458 206.488 82.2448 207.53 82.4375C208.572 82.6354 209.415 82.8646 210.072 83.125V69.8125C210.624 69.6458 211.509 69.474 212.717 69.2917C213.926 69.099 215.155 69 216.405 69C217.613 69 218.697 69.0833 219.655 69.25C220.613 69.4063 221.415 69.7292 222.072 70.2292C222.738 70.7187 223.228 71.3906 223.551 72.25C223.884 73.099 224.051 74.2031 224.051 75.5625V114.542C224.051 117.115 222.848 119.167 220.447 120.708C218.848 121.75 216.785 122.667 214.259 123.458C211.743 124.25 208.842 124.646 205.551 124.646C201.993 124.646 198.801 124.151 195.967 123.167C193.145 122.182 190.764 120.76 188.822 118.896C186.874 117.036 185.395 114.807 184.384 112.208C183.368 109.599 182.863 106.646 182.863 103.354ZM206.217 93.0833C203.259 93.0833 200.978 93.9375 199.384 95.6458C197.801 97.3438 197.009 99.9115 197.009 103.354C197.009 106.76 197.743 109.323 199.217 111.042C200.702 112.766 202.842 113.625 205.634 113.625C206.618 113.625 207.509 113.479 208.301 113.188C209.103 112.885 209.723 112.536 210.155 112.146V94.0625C209.056 93.4115 207.743 93.0833 206.217 93.0833Z" fill="#C147E9"/>
<path d="M247.723 90.7715C247.608 90.4538 247.54 90.0788 247.514 89.6465C247.483 89.2038 247.473 88.7871 247.473 88.3965C247.473 87.4121 247.582 86.4798 247.806 85.6048C248.025 84.7298 248.379 83.9694 248.868 83.3132C249.368 82.6465 250.014 82.1152 250.806 81.709C251.598 81.2923 252.598 81.084 253.806 81.084C254.957 81.084 256.098 81.334 257.223 81.834C258.348 82.3236 259.728 83.0319 261.368 83.959L279.056 94.1465C280.473 96.0111 281.181 98.4746 281.181 101.542C281.181 103.85 280.848 105.636 280.181 106.896C279.525 108.162 278.577 109.146 277.327 109.855L254.723 123.001C252.025 122.292 250.202 121.324 249.243 120.084C248.285 118.85 247.806 117.521 247.806 116.105C247.806 114.188 248.285 112.699 249.243 111.626C250.202 110.558 251.608 109.558 253.473 108.626L267.952 101.292L247.723 90.7715Z" fill="white"/>
</svg>
