<svg xmlns="http://www.w3.org/2000/svg" xmlns:xlink="http://www.w3.org/1999/xlink" width="500" zoomAndPan="magnify" viewBox="0 0 375 374.999991" height="500" preserveAspectRatio="xMidYMid meet" version="1.0"><defs><g/></defs><rect x="-37.5" width="450" fill="#ffffff" y="-37.499999" height="449.999989" fill-opacity="1"/><rect x="-37.5" width="450" fill="#000000" y="-37.499999" height="449.999989" fill-opacity="1"/><g fill="#ffffff" fill-opacity="1"><g transform="translate(44.832153, 226.288461)"><g><path d="M 43.4375 -76.359375 C 47.601562 -76.359375 51.691406 -75.769531 55.703125 -74.59375 C 59.710938 -73.425781 63.191406 -71.675781 66.140625 -69.34375 C 69.191406 -71.375 72.617188 -73.050781 76.421875 -74.375 C 80.234375 -75.695312 84.832031 -76.359375 90.21875 -76.359375 C 94.082031 -76.359375 97.867188 -75.847656 101.578125 -74.828125 C 105.285156 -73.816406 108.585938 -72.21875 111.484375 -70.03125 C 114.378906 -67.84375 116.691406 -64.945312 118.421875 -61.34375 C 120.148438 -57.738281 121.015625 -53.34375 121.015625 -48.15625 L 121.015625 -0.15625 C 119.992188 0.15625 118.390625 0.460938 116.203125 0.765625 C 114.023438 1.066406 111.765625 1.21875 109.421875 1.21875 C 107.191406 1.21875 105.1875 1.066406 103.40625 0.765625 C 101.625 0.460938 100.125 -0.144531 98.90625 -1.0625 C 97.6875 -1.976562 96.742188 -3.222656 96.078125 -4.796875 C 95.421875 -6.367188 95.09375 -8.425781 95.09375 -10.96875 L 95.09375 -47.390625 C 95.09375 -50.441406 94.226562 -52.648438 92.5 -54.015625 C 90.78125 -55.390625 88.445312 -56.078125 85.5 -56.078125 C 84.070312 -56.078125 82.546875 -55.75 80.921875 -55.09375 C 79.296875 -54.4375 78.078125 -53.75 77.265625 -53.03125 C 77.367188 -52.625 77.421875 -52.242188 77.421875 -51.890625 C 77.421875 -51.535156 77.421875 -51.207031 77.421875 -50.90625 L 77.421875 -0.15625 C 76.304688 0.15625 74.65625 0.460938 72.46875 0.765625 C 70.28125 1.066406 68.070312 1.21875 65.84375 1.21875 C 63.601562 1.21875 61.59375 1.066406 59.8125 0.765625 C 58.039062 0.460938 56.546875 -0.144531 55.328125 -1.0625 C 54.109375 -1.976562 53.164062 -3.222656 52.5 -4.796875 C 51.84375 -6.367188 51.515625 -8.425781 51.515625 -10.96875 L 51.515625 -47.390625 C 51.515625 -50.441406 50.570312 -52.648438 48.6875 -54.015625 C 46.8125 -55.390625 44.550781 -56.078125 41.90625 -56.078125 C 40.082031 -56.078125 38.507812 -55.796875 37.1875 -55.234375 C 35.863281 -54.679688 34.742188 -54.148438 33.828125 -53.640625 L 33.828125 -0.15625 C 32.816406 0.15625 31.21875 0.460938 29.03125 0.765625 C 26.84375 1.066406 24.582031 1.21875 22.25 1.21875 C 20.007812 1.21875 18 1.066406 16.21875 0.765625 C 14.445312 0.460938 12.953125 -0.144531 11.734375 -1.0625 C 10.515625 -1.976562 9.570312 -3.222656 8.90625 -4.796875 C 8.25 -6.367188 7.921875 -8.425781 7.921875 -10.96875 L 7.921875 -57 C 7.921875 -59.738281 8.503906 -61.921875 9.671875 -63.546875 C 10.847656 -65.171875 12.453125 -66.695312 14.484375 -68.125 C 17.929688 -70.5625 22.21875 -72.539062 27.34375 -74.0625 C 32.476562 -75.59375 37.84375 -76.359375 43.4375 -76.359375 Z M 43.4375 -76.359375 "/></g></g></g><g fill="#c147e9" fill-opacity="1"><g transform="translate(173.773554, 226.288461)"><g><path d="M 80.3125 -13.40625 C 79.8125 -8.632812 78.414062 -4.976562 76.125 -2.4375 C 73.84375 0.101562 70.515625 1.375 66.140625 1.375 C 62.890625 1.375 59.992188 0.585938 57.453125 -0.984375 C 54.910156 -2.566406 52.171875 -5.234375 49.234375 -8.984375 L 34.140625 -27.890625 L 34.140625 -0.15625 C 33.023438 0.0507812 31.375 0.332031 29.1875 0.6875 C 27 1.039062 24.789062 1.21875 22.5625 1.21875 C 20.320312 1.21875 18.3125 1.066406 16.53125 0.765625 C 14.757812 0.460938 13.265625 -0.144531 12.046875 -1.0625 C 10.828125 -1.976562 9.882812 -3.222656 9.21875 -4.796875 C 8.5625 -6.367188 8.234375 -8.425781 8.234375 -10.96875 L 8.234375 -99.21875 C 9.347656 -99.519531 10.992188 -99.847656 13.171875 -100.203125 C 15.359375 -100.554688 17.570312 -100.734375 19.8125 -100.734375 C 22.050781 -100.734375 24.054688 -100.582031 25.828125 -100.28125 C 27.609375 -99.976562 29.109375 -99.367188 30.328125 -98.453125 C 31.546875 -97.535156 32.484375 -96.289062 33.140625 -94.71875 C 33.804688 -93.144531 34.140625 -91.085938 34.140625 -88.546875 L 34.140625 -48.3125 L 60.359375 -75.140625 C 65.640625 -75.140625 69.878906 -73.96875 73.078125 -71.625 C 76.273438 -69.289062 77.875 -66.347656 77.875 -62.796875 C 77.875 -61.265625 77.617188 -59.863281 77.109375 -58.59375 C 76.609375 -57.320312 75.820312 -56.023438 74.75 -54.703125 C 73.6875 -53.390625 72.316406 -51.992188 70.640625 -50.515625 C 68.960938 -49.046875 67.003906 -47.347656 64.765625 -45.421875 L 55.9375 -37.796875 Z M 80.3125 -13.40625 "/></g></g></g><g fill="#ffffff" fill-opacity="1"><g transform="translate(258.359486, 226.288461)"><g><path d="M 5.1875 -60.359375 C 4.976562 -60.960938 4.847656 -61.671875 4.796875 -62.484375 C 4.742188 -63.296875 4.71875 -64.054688 4.71875 -64.765625 C 4.71875 -66.597656 4.921875 -68.328125 5.328125 -69.953125 C 5.734375 -71.578125 6.394531 -73 7.3125 -74.21875 C 8.226562 -75.4375 9.421875 -76.425781 10.890625 -77.1875 C 12.367188 -77.957031 14.222656 -78.34375 16.453125 -78.34375 C 18.585938 -78.34375 20.695312 -77.882812 22.78125 -76.96875 C 24.863281 -76.050781 27.429688 -74.726562 30.484375 -73 L 63.25 -54.109375 C 65.894531 -50.648438 67.21875 -46.078125 67.21875 -40.390625 C 67.21875 -36.117188 66.601562 -32.8125 65.375 -30.46875 C 64.15625 -28.132812 62.378906 -26.3125 60.046875 -25 L 18.140625 -0.609375 C 13.160156 -1.929688 9.78125 -3.734375 8 -6.015625 C 6.21875 -8.304688 5.328125 -10.769531 5.328125 -13.40625 C 5.328125 -16.96875 6.21875 -19.738281 8 -21.71875 C 9.78125 -23.695312 12.394531 -25.550781 15.84375 -27.28125 L 42.671875 -40.84375 Z M 5.1875 -60.359375 "/></g></g></g></svg>