<svg width="364" height="137" viewBox="0 0 364 137" fill="none" xmlns="http://www.w3.org/2000/svg">
<path d="M47.3542 32.5C52.9062 32.5 58.3594 33.2865 63.7083 34.8542C69.0521 36.4115 73.6927 38.7448 77.625 41.8542C81.6927 39.1458 86.2604 36.9115 91.3333 35.1458C96.4167 33.3854 102.547 32.5 109.729 32.5C114.88 32.5 119.927 33.1823 124.875 34.5417C129.818 35.8906 134.219 38.0208 138.083 40.9375C141.943 43.8542 145.026 47.7188 147.333 52.5208C149.635 57.3281 150.792 63.1875 150.792 70.1042V134.104C149.427 134.521 147.292 134.927 144.375 135.333C141.469 135.734 138.458 135.938 135.333 135.938C132.359 135.938 129.688 135.734 127.312 135.333C124.938 134.927 122.938 134.12 121.312 132.896C119.688 131.677 118.427 130.016 117.542 127.917C116.667 125.823 116.229 123.078 116.229 119.688V71.125C116.229 67.0573 115.073 64.1146 112.771 62.2917C110.479 60.4583 107.365 59.5417 103.438 59.5417C101.531 59.5417 99.5 59.9792 97.3333 60.8542C95.1667 61.7292 93.5417 62.6458 92.4583 63.6042C92.5938 64.1458 92.6667 64.6562 92.6667 65.125C92.6667 65.599 92.6667 66.0365 92.6667 66.4375V134.104C91.1771 134.521 88.9792 134.927 86.0625 135.333C83.1458 135.734 80.1979 135.938 77.2292 135.938C74.2396 135.938 71.5625 135.734 69.1875 135.333C66.8229 134.927 64.8333 134.12 63.2083 132.896C61.5833 131.677 60.3229 130.016 59.4375 127.917C58.5625 125.823 58.125 123.078 58.125 119.688V71.125C58.125 67.0573 56.8646 64.1146 54.3542 62.2917C51.8542 60.4583 48.8385 59.5417 45.3125 59.5417C42.8802 59.5417 40.7812 59.9167 39.0208 60.6667C37.2552 61.4062 35.7604 62.1146 34.5417 62.7917V134.104C33.1927 134.521 31.0625 134.927 28.1458 135.333C25.2292 135.734 22.2135 135.938 19.1042 135.938C16.1146 135.938 13.4375 135.734 11.0625 135.333C8.69792 134.927 6.70833 134.12 5.08333 132.896C3.45833 131.677 2.19792 130.016 1.3125 127.917C0.4375 125.823 0 123.078 0 119.688V58.3125C0 54.6615 0.776041 51.75 2.33333 49.5833C3.90104 47.4167 6.04167 45.3854 8.75 43.4792C13.3438 40.2292 19.0625 37.5938 25.8958 35.5625C32.7396 33.5208 39.8958 32.5 47.3542 32.5Z" fill="white"/>
<path d="M268.444 116.438C267.777 122.802 265.913 127.677 262.861 131.063C259.819 134.448 255.382 136.146 249.548 136.146C245.215 136.146 241.35 135.094 237.965 133C234.574 130.891 230.923 127.333 227.007 122.333L206.882 97.125V134.104C205.392 134.38 203.194 134.755 200.277 135.229C197.361 135.698 194.413 135.938 191.444 135.938C188.454 135.938 185.777 135.734 183.402 135.333C181.038 134.927 179.048 134.12 177.423 132.896C175.798 131.677 174.538 130.016 173.652 127.917C172.777 125.823 172.34 123.078 172.34 119.688V2.02083C173.824 1.61979 176.017 1.18229 178.923 0.708333C181.84 0.239583 184.788 0 187.777 0C190.762 0 193.434 0.203125 195.798 0.604167C198.173 1.01042 200.173 1.82292 201.798 3.04167C203.423 4.26563 204.673 5.92708 205.548 8.02083C206.434 10.1198 206.882 12.8646 206.882 16.25V69.8958L241.84 34.125C248.882 34.125 254.533 35.6875 258.798 38.8125C263.059 41.9271 265.194 45.849 265.194 50.5833C265.194 52.625 264.85 54.4948 264.173 56.1875C263.507 57.8854 262.454 59.6146 261.027 61.375C259.611 63.125 257.783 64.9896 255.548 66.9583C253.309 68.9167 250.699 71.1823 247.715 73.75L235.944 83.9167L268.444 116.438Z" fill="#C147E9"/>
<path d="M281.059 53.8327C280.777 53.0306 280.605 52.0827 280.538 50.9993C280.465 49.916 280.434 48.9056 280.434 47.9577C280.434 45.515 280.704 43.2077 281.246 41.041C281.788 38.8743 282.668 36.9785 283.892 35.3535C285.111 33.7285 286.704 32.4108 288.663 31.3952C290.632 30.3691 293.105 29.8535 296.079 29.8535C298.923 29.8535 301.736 30.4681 304.517 31.6868C307.293 32.9108 310.715 34.6764 314.788 36.9785L358.475 62.166C362.001 66.7806 363.767 72.8744 363.767 80.4577C363.767 86.1556 362.944 90.5619 361.309 93.6869C359.684 96.8014 357.314 99.2285 354.204 100.979L298.329 133.499C291.689 131.739 287.184 129.333 284.809 126.291C282.434 123.239 281.246 119.952 281.246 116.437C281.246 111.687 282.434 107.994 284.809 105.354C287.184 102.718 290.668 100.244 295.267 97.9369L331.038 79.8535L281.059 53.8327Z" fill="white"/>
</svg>
